 <svg viewBox='0 0 20 20'>
      <path fillRule="evenodd" clipRule="evenodd" d="M10 4a3.333 3.333 0 100 6.667A3.333 3.333 0 0010 4zM8 7.333a2 2 0 114 0 2 2 0 01-4 0z" fill="currentColor"/><path d="M7.333 12A3.333 3.333 0 004 15.333v2a.667.667 0 101.333 0v-2a2 2 0 012-2h5.334a2 2 0 012 2v2a.667.667 0 101.333 0v-2A3.333 3.333 0 0012.667 12z" fill="currentColor"/><path fillRule="evenodd" clipRule="evenodd" d="M10 18.5a8.5 8.5 0 100-17 8.5 8.5 0 000 17zm0 1.5c5.523 0 10-4.477 10-10S15.523 0 10 0 0 4.477 0 10s4.477 10 10 10z" fill="currentColor"/>
    </svg>