    <svg viewBox='0 0 30 30'>
      <path fill="currentColor" fillRule="evenodd" d="M28.499 30h-27a1.5 1.5 0 01-1.5-1.5V9a1.5 1.5 0 011.5-1.5h27a1.5 1.5 0 011.5 1.5v19.5a1.5 1.5 0 01-1.5 1.5zm0-15h-10.5v7.5h10.5V15zm0 9h-10.5a1.5 1.5 0 01-1.5-1.5V15a1.5 1.5 0 011.5-1.5h10.5V9h-27v19.5h27V24zm-6.75-7.5a2.25 2.25 0 110 4.5 2.25 2.25 0 010-4.5zm0 3a.75.75 0 10-.002-1.5.75.75 0 00.002 1.5zm.201-17.451L15.106 6h-2.999l10.391-6 3.465 6h-1.732L21.95 2.049zm-9.951.072L8.12 6H5.999l6-6 2.745 2.745-1.344.777-1.401-1.401z"/>
    </svg>