<svg viewBox='0 0 19 20'>
      <path fillRule="evenodd" clipRule="evenodd" d="M9.49 20H9.5c2.411 0 4.676-.884 6.38-2.49 3.5-3.303 3.494-8.675-.012-11.97L10.355.33C9.897-.107 9.134-.107 8.657.312a1.07 1.07 0 00-.37.876c.01.155.01.31.01.472 0 2.843-.771 4.522-1.197 4.938-.182-.185-.51-.67-.787-1.659a1.159 1.159 0 00-.849-.794 1.281 1.281 0 00-1.167.29L3.117 5.54c-3.493 3.295-3.489 8.667.01 11.968C4.822 19.114 7.082 19.998 9.49 20zm-4.647-4.047c-2.543-2.4-2.595-6.274-.155-8.718.804 1.399 1.798 1.65 2.408 1.65 1.99 0 3.109-2.42 3.471-5.18l3.586 3.392c2.595 2.44 2.6 6.413.01 8.856-1.247 1.176-2.903 1.824-4.664 1.824h-.006c-1.758-.001-3.408-.65-4.65-1.824z" fill="currentColor"/>
    </svg>